<svg xmlns="http://www.w3.org/2000/svg" viewBox="0 0 98.7 100"><path d="M19.1 36.4c-1-6.7.2-12.4 4.3-17.6 2.3-2.9 3.7-6.4 1-10.1a6.2 6.2 0 01-.6-3.1c-.3-3.5 1.4-5 4.8-4.1A21.9 21.9 0 0132.3 3c1.1.6 2 .5 2.4-.8.8-2.7 2.6-2.6 4.3-1.3C44 4.8 50 6 55.5 8.4c9 3.9 14 10.9 14.4 20.8 0 1.9-.3 4 .4 5.5 2.6 5.1.2 7.9-3.9 10.3-1.3.8-4 1.9-3.3 2.8 1.4 2 3-.6 4.7-1 2.1-.3 4.3-3.8 6-1 1 1.4-2.8 2.5-4.3 3.9-1 1-2.7 1.6-4 2.4-.3.2-.4.7-.6 1.1a4 4 0 001.5.3 16.3 16.3 0 007-3.7c2.4-2 4.3-1.6 6.8.5 7 5.5 6.7 5-.1 10.6A159.8 159.8 0 0152 78.7a9.1 9.1 0 01-8.3.6c-4.2-1.6-8.8-2-12.8-4.2a1.3 1.3 0 00-1.8 1 1.7 1.7 0 00.4 1.4 44.7 44.7 0 0018 8c1.9.4 3.6-.7 5.2-1.7 6.9-4.5 14-8.5 20.6-13.4 5.5-4.2 11.3-7.9 17-11.7 2-1.2 4.3-2.6 6.6-.6 2 1.7 2 4.3 1.4 6.6-1.7 6-6 9.9-11.1 13-9 5.7-18 11-27 16.6-12.9 7.9-22 7.7-33.9-1C18.4 87.4 10.7 81.3 3 75.4c-1.4-1-3.7-2-2.6-4.2a5 5 0 016-2.9c4 1.1 8.2 2 12 4 .8.5 2.1.7 2.7-.5.1-.4-.7-1.4-1.4-1.7L14.1 67a6.3 6.3 0 01-3-3.7 5 5 0 011.2-5.1 3.8 3.8 0 015-.5l7.3 5a2.4 2.4 0 002.2 0c1.3-1-.1-1.8-.8-2.3-2.1-1.6-4.5-3-6.5-4.6-.8-.7-2.3-1.9-1-3.2 1-.8 2 .2 2.8.9 5.5 4 11 8 17.3 11 3.7 1.8 6.5 1.2 9.5-.8 1-.5 2.4-1 2-2-.5-1.5-1.7-.3-2.6 0-1 .3-1.9.8-2.9 1.2a2 2 0 01-2.7-1 2.4 2.4 0 01.6-2.1c1.8-1.6 3.8-3 5.6-4.5.8-.6 2-1.5 1.4-2.4-1-1.4-2.4-.6-3.5.2-1.5 1-2.8 2.4-4.4 3.4-3.4 2.4-6.9 2.5-10.3.1-1.1-.7-2-1.7-3.2-2.4-7.1-4-11.3-9.6-9-17.9z" fill="#e0e0e0"/></svg>