<svg xmlns="http://www.w3.org/2000/svg" viewBox="0 0 72.5 100"><path d="M36.2 28.5c-2.5-.2-4.8 0-6.5 2.2-2 2.5-3.9 2-5.8-.2-2.6-3-6.1-1.8-9.4-1.8-.3 0-.6.4-1 .6l1.3.5a4.8 4.8 0 00.7 0c6 1 8 3.5 7 8.2-1 5.2-6.2 8.7-11 7.5a3.4 3.4 0 01-1.9-1C7.1 41 4 37.8 1.6 34.2c-1.9-3-2.8-6.6 1.1-9.4A4.5 4.5 0 004 22.4c.6-2.6 2.2-2.8 4.3-1.8a9.3 9.3 0 002.7.7c1.5.2 2.7 0 3.2-2a29.8 29.8 0 011.6-5.3c2-4.6 5-5 8.8-1.4l11.2 11a1.2 1.2 0 001.9 0l-.5-1.2c-4.1-4.6-8-9.3-12.4-13.7-5-5-9-3.8-10.5 3-.5 2.4-1.4 4.5-1.9 6.9a1.2 1.2 0 01-1.5 1 3.1 3.1 0 01-1.6-1.3 2.4 2.4 0 01-.4-2c2.5-4.8 4-10 7.3-14.5 1.3-1.8 3-2.4 5-1.1 3.6 2.5 7.9 4 10.4 8.2 1.7 2.8 4.3 5 6.7 7.4 1.1 1 2.8 3.5 3.6 2.8 2-1.7-.3-3.3-1.2-4.8-1-1.7-.3-2.8 1.4-2.9a4.5 4.5 0 014 1.3c2.7 3.2 5.4 6.5 8.2 9.6 1.5 1.7.9 3-.5 4.3a8 8 0 01-2.3 1.7c-4 1.5-3.2 4.8-2.7 7.8a2.2 2.2 0 001.2 1.5c1.6.3 1-1 1.2-1.8.2-1.2.2-2.4.5-3.5.3-.8 1.2-.8 1.8-.4.6.3 1.4 1 1.3 1.5-.2.8-1 1.5-1.4 2.3-.3.9-1 2-.7 2.6 2.4 4.8-.8 8-3.2 11.3a13.2 13.2 0 00-2.6 7.2c-.3 4.7-3 7.7-7.4 9.6-9.4 4-10.6 4.1-20.2.3-5.7-2.3-9.6-10.3-7.9-16.4a2 2 0 012-1.6c6.3.1 9-4.3 11.5-9a22 22 0 011.4-2.5c.8-1.2 2-1.4 2.8 0l2 3.7c2.9 5.3 9 7.9 14.5 6a6 6 0 004.1-4.6 2.3 2.3 0 00-.7-1.9 1.2 1.2 0 00-1.7.5c-2.3 4.6-6.1 3.9-9.9 2.7-4-1.2-4.8-5-5.9-8.3-.7-2.3 1.4-4 3.3-4.9 1.2-.5 2.8-.4 4.2-.6.5 0 1.4.1 1.2-.8 0-.2-.8-.4-1.2-.5h-2.8zM34.6 100a70 70 0 00-15-1.9c-1 0-2.2-.8-3.2-1.4-5.4-3.1-5.5-3.5-2-8.9a46.9 46.9 0 019-10.8c2.4-2 3.2-2 5.2.6 4.6 6 10.3 7.5 15.5-1.1a27.5 27.5 0 003.2-7c.3-1.6 1.7-2.8 3.2-2.3 7.2 2.2 14.8 3.6 20 9.8 2.8 3.3 2.8 5-.6 7.6-2.1 1.5-4.4 2.8-6.6 4.1-7.5 4.7-16.3 6.5-24 10.6-1.2.6-2.8.4-4.7.7z" fill="#e0e0e0"/><path d="M43.5 70.3c0 3-3.3 8-6 9.1-2.4 1-5.7-.3-7-2.9a1.9 1.9 0 01.3-2.5 28 28 0 0111.4-4.9c.4 0 1 .8 1.3 1.2z" fill="#e0e0e0"/></svg>