<svg xmlns="http://www.w3.org/2000/svg" viewBox="0 0 457.3 100"><path d="M40.4 77.4h-4.2V84l-13 12.9H0l13.2-13h10v-6.5h-16l13-13H43v-4.2l15.5-15.6h21.5v-4l13.2-13.3V51l-6.5 6.7H56.1v4zM1.2 37.9l13.2-13H47L72 0l3.2 3.1L40.4 38zm.5-11.7L28 0l3.2 3.1L4.8 29.5zm56.7-1.3h32.3l-13 13H56v4.2L40.4 57.8H17.8v4L4.5 75.1v-24l6.7-6.5H43v-4zM35.6 14h-6.8V9.6h23.6V14h-12v7h-4.8zm20.5 63.3v19.5H42.9v-17l15.5-15.5H93l-13.3 13zm39.2-10.8V84l-13 12.9h-22l13-13h9v-4zm1.1-52.5H84.2v7h-4.7v-7H73V9.6h23.4zM206.5 64.4h10.1v32.5h-93.5V2.8h93.5v32.8h-10.1zm-73.3-40.6v-9.3l-8-8.3V32zm0 30.7v-9.2l-8-8.1v25.5zm-8 13.4v25.6l8-8V76zm1.6-63l7.9 8h70.2l8-8zm0 30.7l7.9 8H149l-6.5-8zm16.9 39l-6.6-8.3h-10.3l7.9 8.2zm50.4 2V45.8h-33.3l4-22.6h39.5v-8h-68.9v8h20.7l-4 22.6h-16.7V54h15.3l-4 22.7h-11.3v8.2h68.9v-8.2zM145.2 73c1-5 2-10.2 2.8-15.3l-8.9 7.6c2 2.7 4 5.3 6.1 7.7zm5.4-30.8c1-5 2-10.1 2.6-15.3-2.8 2.7-5.8 5.2-8.8 7.7 2 2.6 4 5.3 6.2 7.6zm35.6 34.3h-30.8l4-22.7h26.8zm-11.7-10.3H169l-9.5 8.2h23.1zm-9.7-22.6h30l8-8h-28.5zm11.7 21.6c2.4 2.6 5 5.3 7.5 7.7V57.7zm21.2 9.2h7.2l8-8.2h-7zM340.9 76l-19.3 24-32.5-26c-11 8.5-21.8 17.1-32.5 26l-19.3-24 32.9-26.5V1.1h37.7v49q16.3 13.1 33 25.9zm-4.4.4c-10.7-8.1-21.2-16.4-31.7-24.7v-5.9H301v7c2.7 2.5 5.7 4.7 8.6 7l-6.4 7.8-12.3-10V35.9h10v3h-7v17.3l8.7 7 2.6-2.8a88.9 88.9 0 01-7.5-5.9V42.7h7V32.1H291v-3.3h6.8V18.2H291v-7h-7v-3h10V15h7v13.7h3.8V4.4H301v6.8h-3.3V4.4h-24.5v46.7a72 72 0 01-4.7 3.8l4.4 5.4-2.6 1.9-4.3-5.4-24.4 19.6c5 6.5 10.2 12.8 15.3 19.2 2.7-2.3 5.5-4.6 8.3-6.7l-4.3-5.4 2.5-2 4.2 5.3c7.2-5.7 14.3-11.2 21.4-17 5.3 4.4 10.5 8.5 16 12.7l8.4-10.7 8 6.3-2 2.5c-1.8-1.4-3.6-2.8-5.4-4.4l-6.7 8.5a506 506 0 008.4 6.4 14.2 14.2 0 002.3-2.8l-5.6-4.2 2.2-2.6 5.4 4.3 6.7-8.3-16.2-13 1.8-2.4 18.8 15-13 16c1 1 1.9 1.6 3 2.5l15.3-19.2zm-28.4-9l2.7 2.2-6.4 7.7L289.1 65l-15.3 12.3-5-6.1-3.7-4.7-13.7 11 2.4 3 10.8-8.7 6.2 8-2.5 1.8a64.5 64.5 0 01-4.2-5.4l-8.4 6.7 4.3 5.4-2.5 2.1L247 77l18.5-15 4.5 5.5L284 56v-24h-3.6v22.2l-4.6 3.6-1.9-2.4 3.2-2.6V8h3.3v7h6.8v3h-6.8v10.7h6.8v28.9L271.9 70c.7 1 1.5 1.9 2.4 2.8l14.8-12a342 342 0 0014.8 12c1.5-1.7 3-3.4 4.2-5.3zm-19-39.8l-7-6.8h14zM383.4 97.8h-12V46.7l-4.8 4.7v32.3l-6 6v-42l10.8-10.9V24.6H357l6-6h8.4V3.3h12v15.5h7.1l6.1 6h-13.2zM394 53v29.5l-6-6V46.8zm62.6-3.7c-1.8 2.4-4 3-6.7 1.7l-23.1-13.3-24 13.4c-2.8 1.3-5 .6-6.5-2a2.6 2.6 0 01-.7-2.2 4.6 4.6 0 012.5-4.2c6.2-3.6 12.5-7 18.9-10.6l-5.4-3.3c-2.5-1.8-3-4-1.7-6.7 1.7-2.4 3.9-3 6.6-1.6l10.4 6 16.2-9.2V14H414c-3.6 2.2-7 4.6-10.8 7-2.6 1.2-5 .8-6.7-1.6-1.5-2.8-1-5 1.4-6.9L410 5a3.8 3.8 0 012.5-.8H448c3 .3 4.6 1.9 5 4.9v11.2a5.3 5.3 0 01-2.4 4.2l-13.7 7.7 18 10.5c2.5 1.8 3 3.8 1.9 6.6zm-3 37l-11.3 11.2h-30.3l-11.3-11.3v-23L412.1 52h30.3l11.3 11.4zm-38-20.6V84H439V65.7z" fill="#ff0"/></svg>