<svg xmlns="http://www.w3.org/2000/svg" viewBox="0 0 576.6 99.8"><path d="M30 12 13.1 23.4v61.1l-2.7-1.9V21.4l16.8-11.1Zm5.6 3.7L18.8 27.1v61.1l-2.9-1.9V25.1L32.8 14Zm5.7 3.8L24.4 30.8v61.1l-2.9-1.8V28.9l16.9-11.2ZM27.1 32.7 44 21.4v61.2L27.1 93.8ZM112.2 13.6v75h-51l-8-7.7v-40l8-8h25.5V13.6ZM54.7 79.4 58 78V43.7l-3.3-1.4Zm6.6-44.5-6 6.1 3.2 1.2 4.2-4Zm-6 45.9c2 2 3.9 4 6 5.9l1.5-3.3-4-4.1Zm8.6-41.7-4.4 4.3v34.5l4.3 4.4 42.1.1V19.7H93v19.4Zm-1.1-4.7 1.3 3.2h26.6l-3.3-3.2ZM93 74.3H72.3l.1-27.4H93Zm-18.1-1.4h15.6l-3.3-3.4h-9Zm11.8-19.8h-8.1v15h8.1ZM88.2 33l3.3 3.4v-17l-3.3-3.3Zm3.3 38.8V49.4l-3.3 3.3v15.8Zm18.1-56.7H89.3l3.2 3.3h13.9ZM119.9 39.1h7.1v14.2h-7.1Zm0 21.4h7.1v14.3h-7.1Zm14.3-21.4H127v-7.2h7.2ZM127 53.3h42.9v7.2H127ZM162.8 89h-28.6v-7.2H127v-7h7.2v7h28.6Zm0-57.1h-28.6v-7.1h28.6Zm7.1 7.2h-7.1v-7.2h7.1Zm-7.1 42.7v-7h7.1v7Zm7.1-42.7h7.1v14.2h-7.1Zm0 28.6h7.1v7.1h-7.1ZM212.3 24.3v3.5c-14.7 1.4-22.8 9.4-24.2 24.2h-3.4c1.5-16.8 10.7-26 27.6-27.7Zm-27.6 31.1h3.4v33.2h-3.4Zm27.6-24.1v13.8q-6.3.6-6.9 6.9h-13.9c1.2-12.6 8.1-19.6 20.8-20.7Zm-20.8 24.1h13.9v33.2h-13.9Zm24.2-17.3V24.3c16.9 1.6 26.1 10.8 27.8 27.7h-13.9c-.9-8.4-5.5-13-13.9-13.9ZM226.2 52h-3.5c-.5-4.2-2.8-6.5-7-6.9v-3.5c6.4.6 9.8 4 10.5 10.4Zm-3.5 3.4h3.5v33.2h-3.5Zm6.9 0h13.9v33.2h-13.9ZM293.9 80.9h8V68.4h8.2v20.3h-51.7V35.3h-8.5v-7.8h8.5V14.4h35.5v13.1h16.2v7.8h-16.2Zm-27.2 0h19.1V22.1h-19.1ZM336.6 23.4h-12.8c-1.9-.1-2.8-1.1-2.9-3V17c.1-1.8 1-2.7 2.9-2.9h12.8a3 3 0 0 1 2.9 2.9v3.4c-.2 1.9-1.2 2.9-2.9 3Zm0 9.3a3 3 0 0 1 2.9 3v50.2a2.8 2.8 0 0 1-2.9 2.7h-12.8c-1.9-.1-2.8-1-2.9-2.7V63.7a7.9 7.9 0 0 1 2-5l5.2-5.3a7.9 7.9 0 0 0 2.1-5V35.7a2.9 2.9 0 0 1 2.9-3ZM392.8 80.9h8V68.4h8.2v20.3h-51.7V35.3h-8.5v-7.8h8.5V14.4h35.5v13.1H409v7.8h-16.2Zm-27.2 0h19.1V22.1h-19.1ZM487.6 24.3l-37.7 75.4h-26.3l14.2-28.2L414 24.3h26.3l10.5 20.9 10.4-20.9ZM440 66.9l8.6-17.1-10.7-21.4h-17.1Zm19.4 4.6L451 54.4l-20.7 41.2h17Zm-6.2-21.7 8.5 17.1L481 28.4h-17ZM504.6 14.1 498 27l-6.5-12.9ZM511 27l-6.5 13-6.5-13Zm6.5 13L511 52.8 504.6 40Zm6.4 12.8-6.4 13-6.5-13Zm6.5 13L524 78.7l-6.4-12.9Zm0 25.8L524 78.7h13Zm6.5-12.9-6.5-12.9h13Zm6.5-12.9-6.5-13h12.8Zm6.3-13L543.5 40h12.9Zm6.6-12.8-6.6-13h13Zm6.4-13-6.4-12.9h13Z" style="fill:#ff0"/></svg>