<svg xmlns="http://www.w3.org/2000/svg" viewBox="0 0 547.5 200"><path d="M89.5 125a6.7 6.7 0 00-6.4 4l-3 6a3.9 3.9 0 00-.5 1.8q0 2.3 2.6 2.3h22.6a3.4 3.4 0 012.8 1.2 3.5 3.5 0 01.6 3l-.7 3a5.2 5.2 0 01-1.8 3 5 5 0 01-3.3 1.3H76.2a6.7 6.7 0 00-6.3 4L48.6 196a6.7 6.7 0 01-6.4 4H27.8q-2.6 0-2.6-2.3a3.3 3.3 0 01.6-1.7L47 154.6a3.5 3.5 0 00.5-1.8q0-2.2-2.6-2.2H3.4a3.2 3.2 0 01-2.7-1.3 3.5 3.5 0 01-.6-3l.7-3a5.2 5.2 0 011.8-3 5 5 0 013.4-1.2h44.8a6.7 6.7 0 006.3-4l3.1-6.2a3.9 3.9 0 00.5-1.7q0-2.3-2.7-2.3H9a3.3 3.3 0 01-2.9-1.3 3.3 3.3 0 01-.5-3l.6-3a5.1 5.1 0 011.9-3 5.1 5.1 0 013.3-1.2h99a3.2 3.2 0 012.6 1.3 3.5 3.5 0 01.7 3l-.7 3a5.2 5.2 0 01-1.9 3 4.9 4.9 0 01-3.2 1.2z" fill="#ed1e79"/><path d="M202.7 192.6a3.5 3.5 0 01.7 3q-1 4.4-5.2 4.4h-77.6a3.2 3.2 0 01-2.7-1.3 3.5 3.5 0 01-.7-3q1-4.3 5.2-4.3h26.4a4.9 4.9 0 003.2-1.3 5.9 5.9 0 002-3l8.3-39.2a3.5 3.5 0 00-.7-3 3.2 3.2 0 00-2.7-1.2h-21.6a3.2 3.2 0 01-2.7-1.3 3.5 3.5 0 01-.7-3q1-4.4 5.2-4.4h68.2a3.2 3.2 0 012.7 1.3 3.5 3.5 0 01.6 3q-.9 4.4-5.2 4.4h-21.6a4.9 4.9 0 00-3.2 1.2 5.8 5.8 0 00-2 3l-8.3 39.2a3.5 3.5 0 00.7 3 3.2 3.2 0 002.7 1.3H200a3.2 3.2 0 012.7 1.2z" fill="#0ff"/><path d="M241.6 135a3 3 0 012.2 1 3.1 3.1 0 01.9 2.2l-.5 25a3.2 3.2 0 01-3.2 3.3h-9.2a3 3 0 01-2.3-1 3.1 3.1 0 01-.9-2.2l.5-25a3.4 3.4 0 011-2.3 3 3 0 012.3-1zm75.6 4.4q1.6 0 1.6 1.2a2.6 2.6 0 01-.7 1.5l-46.3 55.2a6.9 6.9 0 01-5.4 2.7h-12.7q-1.6 0-1.6-1.1a2.5 2.5 0 01.8-1.6l46.2-55.2a7.1 7.1 0 015.5-2.7zm-47.3 23.9a3 3 0 01-1 2.2 3.2 3.2 0 01-2.3 1h-9.1a3 3 0 01-2.2-1 3.1 3.1 0 01-1-2.2l.6-25a3 3 0 011-2.3 3.2 3.2 0 012.3-1h9.1a3 3 0 012.2 1 3.1 3.1 0 011 2.2z" fill="#ed1e79"/><path d="M447.9 119.4q3.1 0 3.1 2.9a4 4 0 01-.2 1.2l-23.4 72.2q-1.4 4.3-5.7 4.3h-13.4q-3.1 0-3.1-2.9a4.3 4.3 0 01.2-1.4L425 135a4 4 0 00.2-1.2q0-3-3.1-3h-25.7a6.7 6.7 0 00-6.3 4L358.7 196a6.7 6.7 0 01-6.3 4H338q-2.6 0-2.6-2.3a3.9 3.9 0 01.4-1.7l31.6-61.2a3.9 3.9 0 00.4-1.7q0-2.3-2.6-2.3h-25.8a3.3 3.3 0 01-2.8-1.3 3.5 3.5 0 01-.7-3l.7-3a5 5 0 011.9-3 5.2 5.2 0 013.3-1.1h29.3a6.7 6.7 0 006.3-4.2l1.7-3.3a6.7 6.7 0 016.4-4h14.4q2.6 0 2.6 2.3a3.9 3.9 0 01-.5 1.7l-1.7 3.3a4 4 0 00-.4 1.9q0 2.3 2.6 2.3z" fill="#0ff"/><path d="M544 151a3.2 3.2 0 012.8 1.2 3.5 3.5 0 01.6 3l-.7 3a5.2 5.2 0 01-1.8 3 5 5 0 01-3.4 1.3h-82.2a3.3 3.3 0 01-2.8-1.3 3.5 3.5 0 01-.7-3l.7-3a5.2 5.2 0 011.9-3 5 5 0 013.3-1.3z" fill="#ed1e79"/><path d="M107.6 58.1a6.3 6.3 0 00-2 4.7 3.9 3.9 0 00.4 2l21.2 39.6a3 3 0 01.3 1.4q0 2-2.7 2h-16.4a6.4 6.4 0 01-6-3.4l-13-24.2a2.6 2.6 0 00-2.4-1.5A4.2 4.2 0 0084 80l-26.6 24.6a11 11 0 01-7.7 3.3h-18q-2.2 0-2.2-1.2a3.1 3.1 0 011.3-2l74-68.7a3.2 3.2 0 001.2-2q0-1.2-2-1.2H41.9a3.3 3.3 0 01-2.8-1.3 3.3 3.3 0 01-.5-3l.6-3a5.6 5.6 0 015.2-4.3H143q2 0 2 1.3 0 .8-1.2 2z" fill="#0ff"/><path d="M164.3 58a5.7 5.7 0 015.7-4.2h13.6q2.9 0 2.9 2.8a4.4 4.4 0 01-.2 1.4L171 99q-1.6 4.3-6 4.3h-13.4q-3 0-3-2.8a5.4 5.4 0 01.3-1.5zM233 38.6a4.9 4.9 0 00-3.2 1.3 5.2 5.2 0 00-1.8 3l-13 60.7a5.2 5.2 0 01-1.9 3 4.9 4.9 0 01-3.2 1.3h-14.6a3.2 3.2 0 01-2.8-1.3 3.5 3.5 0 01-.6-3l13-60.7a3.5 3.5 0 00-.7-3 3.2 3.2 0 00-2.7-1.3h-37.3a3.2 3.2 0 01-2.8-1.2 3.5 3.5 0 01-.6-3l.7-3a5 5 0 011.8-3 5.2 5.2 0 013.4-1.2h37.2a5 5 0 003.3-1.2 5.2 5.2 0 001.9-3l.7-3a5.2 5.2 0 011.8-3 4.9 4.9 0 013.2-1.3h14.7a3.2 3.2 0 012.7 1.3 3.5 3.5 0 01.6 3l-.7 3a3.5 3.5 0 00.6 3 3.2 3.2 0 002.7 1.2h31a3.3 3.3 0 012.6 1.2 3.4 3.4 0 01.7 3l-.7 3a5.2 5.2 0 01-1.9 3 4.9 4.9 0 01-3.2 1.2zm25 15.2a4 4 0 013 1.3 3.7 3.7 0 011 2.9L260 99a4 4 0 01-1.4 3 4.3 4.3 0 01-3 1.3h-13.6a4 4 0 01-3-1.3 3.8 3.8 0 01-1-3l2.2-41a4.2 4.2 0 011.4-3 4.4 4.4 0 013-1.2z" fill="#ed1e79"/><path d="M315.3 15.1L301.6 1.4a4.8 4.8 0 00-6.8 0L281 15.1a24.2 24.2 0 1034.2 0zm-11 11.8a.5.5 0 00-.8.2c-1 2-2.7 1.7-4.3 1.2-1.8-.5-2.1-2.2-2.6-3.6-.3-1 .6-1.7 1.4-2.1a6.6 6.6 0 011.9-.3c.2 0 .6 0 .5-.4l-.5-.1h-1.3a2.9 2.9 0 00-2.8.9c-.8 1.1-1.7.9-2.5 0-1.1-1.4-2.7-.9-4-.9-.2 0-.4.2-.5.3l.5.2a2 2 0 00.3 0c2.6.5 3.5 1.5 3.1 3.6A4.1 4.1 0 01288 29a1.5 1.5 0 01-.8-.4c-1.1-1.5-2.5-2.9-3.5-4.5-.8-1.3-1.2-2.9.5-4a2 2 0 00.5-1.1c.3-1.2 1-1.2 1.9-.8a4 4 0 001.2.3c.6.1 1.2 0 1.4-.8a13 13 0 01.7-2.4c.9-2 2.1-2.2 3.8-.6l4.9 4.8a.5.5 0 00.8 0l-.2-.5-5.4-6c-2.2-2.1-3.9-1.6-4.6 1.3l-.8 3a.5.5 0 01-.7.4 1.4 1.4 0 01-.7-.5 1 1 0 01-.1-.9c1-2 1.7-4.4 3.1-6.3a1.4 1.4 0 012.2-.5c1.6 1.1 3.5 1.8 4.5 3.6a17.9 17.9 0 003 3.2c.4.5 1.2 1.5 1.5 1.2.9-.7 0-1.4-.5-2-.4-.8-.1-1.3.6-1.3a2 2 0 011.7.6l3.6 4.1c.7.8.4 1.4-.2 2a3.5 3.5 0 01-1 .6c-1.7.7-1.4 2.1-1.2 3.4a1 1 0 00.6.7c.6.1.4-.5.5-.8 0-.5 0-1 .2-1.5.1-.4.5-.4.8-.2.2.2.6.5.5.6 0 .4-.4.7-.6 1-.1.4-.4 1-.3 1.2 1 2.1-.3 3.4-1.4 5a5.8 5.8 0 00-1.1 3 4.7 4.7 0 01-3.2 4.2c-4.1 1.8-4.6 1.8-8.8.2a6.4 6.4 0 01-3.5-7.2.9.9 0 011-.7c2.7 0 3.8-1.8 5-3.9a9.6 9.6 0 01.5-1c.4-.6.9-.7 1.2-.1.4.5.6 1.1.9 1.6a5.3 5.3 0 006.3 2.6 2.6 2.6 0 001.8-2 1 1 0 00-.3-.8zm-2.5 13a5.6 5.6 0 01-2.6 4 2.6 2.6 0 01-3-1.3.8.8 0 010-1 12.2 12.2 0 015-2.2c.2 0 .5.4.6.5zm11.5 6.3l-2.9 1.8c-3.2 2-7 2.8-10.4 4.5a7.2 7.2 0 01-2 .4 30.5 30.5 0 00-6.6-.9 3.4 3.4 0 01-1.4-.6c-2.3-1.3-2.4-1.5-.9-3.8a20.4 20.4 0 014-4.8c1-.8 1.4-.8 2.2.3 2 2.6 4.5 3.3 6.8-.5a12 12 0 001.4-3 1.2 1.2 0 011.4-1c3 1 6.4 1.6 8.7 4.3 1.2 1.4 1.2 2.2-.3 3.3zM398.4 58.8a3.2 3.2 0 012.7 1.3 3.5 3.5 0 01.7 3l-.7 3a5.2 5.2 0 01-1.9 3 5 5 0 01-3.3 1.2h-82.2a3.3 3.3 0 01-2.9-1.3 3.5 3.5 0 01-.6-3l.7-3a5.2 5.2 0 011.8-3 5 5 0 013.4-1.2z" fill="#0ff"/><path d="M448.6 15.1L434.9 1.4a4.8 4.8 0 00-6.9 0l-13.6 13.7a24.2 24.2 0 1034.2 0zm-1.4 27.6l-11 6.7c-5 3.1-8.7 3-13.5-.5l-9.4-7c-.6-.5-1.5-.9-1-1.8a2 2 0 012.3-1.1 22.3 22.3 0 014.9 1.6c.3.2.8.2 1-.2.1-.2-.2-.6-.5-.7l-2.2-1.3a2.5 2.5 0 01-1.2-1.4 2 2 0 01.5-2.1 1.5 1.5 0 012-.2l2.9 2a1 1 0 00.9 0c.5-.4 0-.7-.3-1-.9-.6-1.8-1-2.6-1.7-.4-.3-1-.8-.4-1.3.3-.4.8 0 1 .3a45.3 45.3 0 007 4.5 3.5 3.5 0 003.9-.4c.3-.2 1-.4.8-.8-.2-.6-.7-.1-1 0l-1.3.5a.8.8 0 01-1-.4 1 1 0 01.2-.9l2.2-1.7c.4-.3.9-.7.6-1-.4-.6-1-.3-1.4 0l-1.7 1.4a3.4 3.4 0 01-4.2 0l-1.3-.9c-2.8-1.6-4.5-3.8-3.6-7.2a8.6 8.6 0 011.7-7c1-1.2 1.5-2.6.4-4.1a2.5 2.5 0 01-.2-1.2c-.1-1.5.6-2 2-1.7a8.8 8.8 0 011.4.6c.5.2.8.2 1-.3.3-1.1 1-1 1.7-.5 2 1.5 4.4 2 6.6 3a9 9 0 015.8 8.3 5.7 5.7 0 00.2 2.2c1 2 0 3.2-1.6 4.2-.5.3-1.6.7-1.3 1.1.5.8 1.2-.3 1.9-.4.8-.1 1.7-1.5 2.4-.4.3.6-1.1 1-1.7 1.5a10.9 10.9 0 01-1.7 1l-.2.5a1.6 1.6 0 00.6 0 6.5 6.5 0 002.8-1.4c1-.8 1.7-.6 2.8.2 2.7 2.2 2.6 2-.1 4.3A64.2 64.2 0 01433 43a3.7 3.7 0 01-3.3.3c-1.7-.7-3.5-.9-5.2-1.7a.5.5 0 00-.7.4.7.7 0 00.2.5 18 18 0 007.2 3.2 3 3 0 002-.7c2.9-1.7 5.7-3.3 8.4-5.3 2.2-1.7 4.5-3.2 6.8-4.7.8-.5 1.7-1 2.6-.3a2.4 2.4 0 01.6 2.7 9.4 9.4 0 01-4.4 5.2z" fill="#ed1e79"/><path d="M515.7 27.1q2.2 0 2.2 1.5a3.3 3.3 0 01-1 2L455 104.4a9.2 9.2 0 01-7.3 3.6h-16.7q-2.2 0-2.2-1.5a3.5 3.5 0 011-2.1l61.7-73.6a9.2 9.2 0 017.3-3.6z" fill="#0ff"/></svg>