<svg xmlns="http://www.w3.org/2000/svg" viewBox="0 0 686 177.5"><path d="M118.8 6.5a6 6 0 0 0-4.1 1.6 5.9 5.9 0 0 0-2.1 3.7l-2.2 16a4.6 4.6 0 0 0 1 3.8A4.5 4.5 0 0 0 115 33h53a4.5 4.5 0 0 1 3.6 1.6 4.6 4.6 0 0 1 1.1 3.8L168.6 67a6 6 0 0 1-2.1 3.8 5.9 5.9 0 0 1-4 1.6H77.1a2.6 2.6 0 0 1-2.1-1 2.6 2.6 0 0 1-.6-2.3 3.3 3.3 0 0 1 3.6-3.1h55.2a5.9 5.9 0 0 0 4-1.6 6 6 0 0 0 2.1-3.8l2.2-15.9a4.2 4.2 0 0 0-1-3.7 4.7 4.7 0 0 0-3.6-1.6h-53a4.4 4.4 0 0 1-3.6-1.6 4.7 4.7 0 0 1-1-3.8l4-28.7a6 6 0 0 1 2.1-3.8 6 6 0 0 1 4-1.6h85.4a2.8 2.8 0 0 1 2.2 1 2.7 2.7 0 0 1 .6 2.3q-.5 3.3-3.7 3.3ZM382 25.4a4.5 4.5 0 0 1 1 3.7l-5.3 38a6.6 6.6 0 0 1-2.2 3.8 5.9 5.9 0 0 1-4 1.6h-83.2a4.4 4.4 0 0 1-3.5-1.6 4.7 4.7 0 0 1-1-3.8l3-21.8a6.3 6.3 0 0 1 6.2-5.4h58.4l.7-4.9a4.1 4.1 0 0 0-1.2-3.4 4.6 4.6 0 0 0-3.5-1.4h-55.2a2.8 2.8 0 0 1-2.2-1 2.6 2.6 0 0 1-.6-2.2 3.4 3.4 0 0 1 3.7-3.2h85.4a4.5 4.5 0 0 1 3.5 1.6Zm-31.5 20.9h-28.2a5.9 5.9 0 0 0-4 1.6 6 6 0 0 0-2.1 3.8l-1.3 9a4.7 4.7 0 0 0 1 3.8 4.4 4.4 0 0 0 3.6 1.6h22.8a5.9 5.9 0 0 0 4-1.6 6.6 6.6 0 0 0 2.2-3.8Z" style="fill:#0ff"/><path d="M425.4 55 445 26.7c.8-1.3 1.8-2 2.8-2s1.9.7 2.4 2L461.9 55l9.8-26a7.6 7.6 0 0 1 3-3.7 7.5 7.5 0 0 1 4.3-1.5h19.5q3.6 0 3.6 3.3a5.3 5.3 0 0 1-.4 1.9l-15.4 38.3a8 8 0 0 1-3 3.6 7.7 7.7 0 0 1-4.4 1.6h-18a7.8 7.8 0 0 1-4.5-1.4 7.5 7.5 0 0 1-2.9-3.3l-6.7-17.2c-.5-1.3-1.2-2-2.2-2s-2 .7-2.9 2l-11.4 17.2a12 12 0 0 1-4 3.3 9.6 9.6 0 0 1-4.6 1.4h-18.1a6 6 0 0 1-4-1.6 5.4 5.4 0 0 1-2-3.6L393 29a4.3 4.3 0 0 1 1.1-3.7 4.7 4.7 0 0 1 3.6-1.5h19.5a5.8 5.8 0 0 1 3.9 1.5A5.5 5.5 0 0 1 423 29Z" style="fill:#ed1e79"/><path d="M602 23.8a4.5 4.5 0 0 1 4.6 5.3l-5.3 38a6 6 0 0 1-2.1 3.8 5.9 5.9 0 0 1-4 1.6h-19.5a4.4 4.4 0 0 1-3.5-1.6 4.7 4.7 0 0 1-1-3.8l4.4-31.5a4.7 4.7 0 0 0-1-3.8 4.4 4.4 0 0 0-3.6-1.6h-22.8a5.9 5.9 0 0 0-4 1.6 6 6 0 0 0-2.1 3.8l-4.5 31.5a6 6 0 0 1-2.1 3.8 5.9 5.9 0 0 1-4 1.6H512a4.4 4.4 0 0 1-3.5-1.6 4.7 4.7 0 0 1-1-3.8l5.4-38a5.9 5.9 0 0 1 2-3.8 6 6 0 0 1 4-1.5Z" style="fill:#0ff"/><path d="M44.2 111.5a6.1 6.1 0 0 0-4.1 1.6 5.9 5.9 0 0 0-2.1 3.7l-6.8 48.9a4.7 4.7 0 0 0 1 3.8 4.4 4.4 0 0 0 3.6 1.6h55.1a2.8 2.8 0 0 1 2.2.9 2.7 2.7 0 0 1 .6 2.3 3.3 3.3 0 0 1-3.7 3.2H4.7a4.5 4.5 0 0 1-3.6-1.6 4.3 4.3 0 0 1-1-3.8l8.6-61.7a6 6 0 0 1 2-3.8A6 6 0 0 1 15 105h85.3a2.8 2.8 0 0 1 2.2 1 2.7 2.7 0 0 1 .6 2.3q-.5 3.3-3.7 3.3Z" style="fill:#ed1e79"/><path d="m137.9 135.2-5.2 36.9a6 6 0 0 1-2.1 3.8 5.9 5.9 0 0 1-4 1.6H107a4.4 4.4 0 0 1-3.6-1.6 4.7 4.7 0 0 1-1-3.8l8.7-61.6a6.3 6.3 0 0 1 6-5.4h19.6a4.5 4.5 0 0 1 3.5 1.6 4.7 4.7 0 0 1 1 3.8l-2.6 18.3h58.4a4.5 4.5 0 0 1 4.6 5.3l-5.3 38a6.7 6.7 0 0 1-2.1 3.8 5.8 5.8 0 0 1-4 1.6h-19.5a4.5 4.5 0 0 1-3.6-1.6 4.3 4.3 0 0 1-1-3.8l4.4-31.5a4.7 4.7 0 0 0-1-3.8 4.4 4.4 0 0 0-3.6-1.6Z" style="fill:#0ff"/><path d="M297.5 177.5H212a4.4 4.4 0 0 1-3.6-1.6 4.7 4.7 0 0 1-1-3.8l5.3-38a5.9 5.9 0 0 1 2.1-3.8 6 6 0 0 1 4-1.5h83.3a4.5 4.5 0 0 1 4.6 5.3l-3 21.9a6 6 0 0 1-2.2 3.8 5.9 5.9 0 0 1-4 1.6h-58.4l-.7 4.8a3.9 3.9 0 0 0 1.1 3.5 4.8 4.8 0 0 0 3.6 1.4h55.2a2.7 2.7 0 0 1 2.1.9 2.7 2.7 0 0 1 .6 2.3 3.3 3.3 0 0 1-3.6 3.2Zm-22.9-40.7a4.4 4.4 0 0 0-3.5-1.6h-23a5.9 5.9 0 0 0-4 1.6 6 6 0 0 0-2 3.8l-2 14.3h28.2a6 6 0 0 0 4-1.5 5.9 5.9 0 0 0 2-3.8l1.4-9a4.7 4.7 0 0 0-1-3.8Z" style="fill:#ed1e79"/><path d="M402 177.5h-85.4a4.4 4.4 0 0 1-3.5-1.6 4.7 4.7 0 0 1-1.1-3.8l5.4-38a5.9 5.9 0 0 1 2.1-3.8 6 6 0 0 1 4-1.5h85.4a2.6 2.6 0 0 1 2.1 1 2.7 2.7 0 0 1 .6 2.2 3.3 3.3 0 0 1-3.7 3.2h-55.1a5.9 5.9 0 0 0-4 1.6 6 6 0 0 0-2.1 3.8l-3.6 25.1a4.7 4.7 0 0 0 1 3.8 4.4 4.4 0 0 0 3.6 1.6h55.2a2.9 2.9 0 0 1 2.1.9 2.7 2.7 0 0 1 .7 2.3 3.4 3.4 0 0 1-3.7 3.2Z" style="fill:#0ff"/><path d="m447.6 156.5-2.2 15.6a6 6 0 0 1-2.1 3.8 5.9 5.9 0 0 1-4 1.6h-19.5a4.4 4.4 0 0 1-3.6-1.6 4.7 4.7 0 0 1-1-3.8l8.6-61.6a6.4 6.4 0 0 1 2.2-3.9 6 6 0 0 1 4-1.5h19.4a4.7 4.7 0 0 1 3.6 1.6 4.4 4.4 0 0 1 1 3.8l-5.5 39.3 26.4-17.8a18 18 0 0 1 10-3.2h26c1.5 0 2.3.3 2.3.9s-.7 1.2-2 1.9l-32 18.7c-1.5.8-2.2 1.9-2.2 3.1a3 3 0 0 0 1.5 2.5l26.8 18.7c.8.7 1.3 1.2 1.3 1.7 0 .8-.9 1.2-2.6 1.2h-25.8a13.9 13.9 0 0 1-9.2-3.2Z" style="fill:#ed1e79"/><path d="M606.8 177.5h-85.4a4.4 4.4 0 0 1-3.6-1.6 4.6 4.6 0 0 1-1-3.8l5.3-38a5.9 5.9 0 0 1 2-3.8 6 6 0 0 1 4-1.5h83.4a4.5 4.5 0 0 1 4.6 5.3L613 156a6 6 0 0 1-2 3.8 5.9 5.9 0 0 1-4 1.6h-58.5l-.7 4.8a3.9 3.9 0 0 0 1.1 3.5 4.8 4.8 0 0 0 3.6 1.4h55.2a2.7 2.7 0 0 1 2.1.9 2.7 2.7 0 0 1 .6 2.3 3.3 3.3 0 0 1-3.6 3.2Zm-22.9-40.7a4.4 4.4 0 0 0-3.5-1.6h-23a5.9 5.9 0 0 0-4 1.6 6.1 6.1 0 0 0-2 3.8l-2 14.3h28.2a6 6 0 0 0 4-1.5 5.8 5.8 0 0 0 2-3.8l1.4-9a4.6 4.6 0 0 0-1-3.8Z" style="fill:#0ff"/><path d="M686 132a3.4 3.4 0 0 1-3.7 3.2h-20.8a6 6 0 0 0-4.1 1.6 6 6 0 0 0-2.1 3.8l-4.4 31.5a6 6 0 0 1-2.1 3.8 5.9 5.9 0 0 1-4 1.6h-19.5a4.4 4.4 0 0 1-3.5-1.6 4.7 4.7 0 0 1-1.1-3.8l5.3-38a6.3 6.3 0 0 1 2.2-3.8 6 6 0 0 1 4-1.5h51a2.8 2.8 0 0 1 2.1 1 2.6 2.6 0 0 1 .7 2.2ZM277.5 25.4a4.5 4.5 0 0 0-3.5-1.6h-83.3a6 6 0 0 0-4 1.6 5.9 5.9 0 0 0-2.1 3.7l-8.2 58.5a4.7 4.7 0 0 0 1 3.8A4.4 4.4 0 0 0 181 93h19.5a5.9 5.9 0 0 0 4-1.6 6 6 0 0 0 2.1-3.8l2.1-15.1h58.4a5.9 5.9 0 0 0 4-1.6 6 6 0 0 0 2.1-3.8l5.4-38a4.5 4.5 0 0 0-1-3.8Zm-35.8 38.9a18.4 18.4 0 0 1-26.1-26.1L226 27.7a3.7 3.7 0 0 1 5.2 0l10.5 10.5a18.5 18.5 0 0 1 0 26Z" style="fill:#ed1e79"/><path d="M231.2 27.7a3.7 3.7 0 0 0-5.2 0l-10.4 10.5a18.4 18.4 0 1 0 26 0Zm12.3 25.5a1.8 1.8 0 0 1 .5 2 7.1 7.1 0 0 1-3.4 4l-8.3 5c-4 2.5-6.7 2.4-10.4-.3l-7.1-5.4c-.5-.3-1.2-.6-.8-1.3a1.5 1.5 0 0 1 1.8-.8 17.3 17.3 0 0 1 3.7 1.2c.2.1.6.2.8-.2l-.4-.5-1.7-1a2 2 0 0 1-.9-1 1.5 1.5 0 0 1 .3-1.7 1.2 1.2 0 0 1 1.6 0l2.2 1.4a.7.7 0 0 0 .7 0c.4-.3 0-.6-.3-.7l-2-1.4c-.2-.2-.7-.6-.2-1 .2-.3.5 0 .8.3a33.5 33.5 0 0 0 5.3 3.3 2.7 2.7 0 0 0 3-.2c.2-.2.6-.3.5-.6s-.5-.1-.8 0l-.9.3a.6.6 0 0 1-.8-.3.7.7 0 0 1 .2-.6l1.7-1.4c.2-.2.6-.4.4-.7s-.7-.2-1 0l-1.4 1a2.6 2.6 0 0 1-3.2 0l-1-.7c-2.1-1.2-3.4-3-2.7-5.5A6.6 6.6 0 0 1 221 41a2.4 2.4 0 0 0 .3-3 1.9 1.9 0 0 1-.2-1c0-1 .5-1.5 1.5-1.3a7.4 7.4 0 0 1 1.1.5c.4.2.7.2.8-.3.2-.8.8-.8 1.3-.4 1.5 1.2 3.3 1.6 5 2.3a6.8 6.8 0 0 1 4.4 6.4 4.4 4.4 0 0 0 .2 1.7c.8 1.6 0 2.4-1.2 3.1-.4.3-1.3.6-1 1 .4.5 1-.3 1.4-.4s1.3-1.2 1.9-.3c.2.4-.9.8-1.3 1.2a7.5 7.5 0 0 1-1.3.7l-.2.4a1.4 1.4 0 0 0 .5 0 5 5 0 0 0 2.1-1c.7-.7 1.3-.6 2.1 0 2.1 1.8 2 1.6 0 3.3a48.6 48.6 0 0 1-8.6 5.5 2.8 2.8 0 0 1-2.6.2c-1.2-.6-2.6-.7-3.9-1.3a.4.4 0 0 0-.5.2.5.5 0 0 0 .1.5 13.5 13.5 0 0 0 5.5 2.4 2.2 2.2 0 0 0 1.6-.5c2.1-1.3 4.3-2.6 6.3-4 1.7-1.4 3.5-2.5 5.2-3.6.6-.3 1.3-.7 2-.1Z" style="fill:none"/><path d="M235.7 56.4c-1.8 1.4-3.8 2.6-5.8 3.8a2 2 0 0 1-1.4.5 12.5 12.5 0 0 1-5-2.3.5.5 0 0 1-.1-.4.3.3 0 0 1 .4-.2c1.1.6 2.4.7 3.6 1.1a2.5 2.5 0 0 0 2.3-.1 44.7 44.7 0 0 0 7.9-5c2-1.6 2-1.4 0-3-.7-.6-1.3-.7-2-.2a4.5 4.5 0 0 1-1.9 1 1.3 1.3 0 0 1-.4 0c0-.1 0-.3.2-.3a7.3 7.3 0 0 0 1-.7c.5-.4 1.5-.7 1.3-1.1-.5-.8-1.1.2-1.7.3s-1 .8-1.3.3c-.2-.3.5-.6 1-.8 1-.7 1.7-1.5 1-2.9a3.9 3.9 0 0 1-.1-1.5 6.2 6.2 0 0 0-4-5.9c-1.6-.6-3.3-1-4.6-2-.5-.4-1-.5-1.2.3-.1.4-.4.4-.7.2a6.2 6.2 0 0 0-1-.4c-1-.2-1.4.2-1.4 1.1a1.7 1.7 0 0 0 .2.9 2.2 2.2 0 0 1-.3 2.9 6 6 0 0 0-1.2 4.9c-.6 2.3.5 3.8 2.5 5l1 .7a2.4 2.4 0 0 0 2.8 0l1.3-1c.5-.3.7-.5 1 0s-.2.5-.4.7l-1.6 1.2a.7.7 0 0 0-.2.6.6.6 0 0 0 .8.3l.8-.4c.3 0 .6-.4.7 0s-.3.5-.5.6a2.5 2.5 0 0 1-2.7.2 32.1 32.1 0 0 1-4.8-3c-.3-.2-.6-.5-.8-.3-.4.4 0 .7.3.9.5.5 1.2.8 1.8 1.3.1.1.5.3.2.6a.7.7 0 0 1-.6 0l-2-1.3a1 1 0 0 0-1.5 0 1.4 1.4 0 0 0-.3 1.5 1.8 1.8 0 0 0 .9 1l1.5.9c.2 0 .4.4.4.5-.2.3-.5.2-.8.1A15.6 15.6 0 0 0 217 56a1.4 1.4 0 0 0-1.7.8c-.3.6.3.9.7 1.2l6.6 5c3.3 2.4 5.9 2.5 9.5.3l7.5-4.7a6.5 6.5 0 0 0 3.1-3.6 1.7 1.7 0 0 0-.4-1.9c-.7-.6-1.3-.2-1.8.2-1.7 1-3.3 2-4.8 3.2Z" style="fill:#ed1e79"/></svg>