<svg xmlns="http://www.w3.org/2000/svg" viewBox="0 0 1270.2 107.3"><path d="M52 20.3a6 6 0 0 0-4.1 1.5 5.9 5.9 0 0 0-2.1 3.8l-2.2 16a4.5 4.5 0 0 0 1 3.7 4.5 4.5 0 0 0 3.5 1.6h53a4.5 4.5 0 0 1 3.7 1.6 4.6 4.6 0 0 1 1 3.8l-4 28.6a6 6 0 0 1-2.1 3.8 5.9 5.9 0 0 1-4 1.6H10.3a2.6 2.6 0 0 1-2.1-1 2.7 2.7 0 0 1-.6-2.3 3.3 3.3 0 0 1 3.6-3.2h55.2a5.9 5.9 0 0 0 4-1.6 6 6 0 0 0 2.1-3.8l2.2-15.9a4.2 4.2 0 0 0-1-3.7 4.6 4.6 0 0 0-3.6-1.6h-53a4.4 4.4 0 0 1-3.5-1.6 4.7 4.7 0 0 1-1.1-3.8l4-28.7a6 6 0 0 1 2.1-3.8 6 6 0 0 1 4.1-1.6H108a2.7 2.7 0 0 1 2.8 3.2c-.3 2.2-1.6 3.3-3.7 3.3ZM315.3 39.1a4.5 4.5 0 0 1 1 3.8l-5.3 38a6.6 6.6 0 0 1-2.2 3.7 5.9 5.9 0 0 1-4 1.6h-83.2a4.4 4.4 0 0 1-3.5-1.6 4.7 4.7 0 0 1-1.1-3.8l3.1-21.8a6.3 6.3 0 0 1 6.1-5.4h58.4l.7-4.9a4.1 4.1 0 0 0-1.2-3.3 4.6 4.6 0 0 0-3.5-1.4h-55.2a2.8 2.8 0 0 1-2.1-1 2.6 2.6 0 0 1-.7-2.3 3.4 3.4 0 0 1 3.7-3.2h85.4a4.5 4.5 0 0 1 3.6 1.6Zm-31.6 21h-28.2a5.9 5.9 0 0 0-4 1.5 6 6 0 0 0-2.1 3.8l-1.3 9a4.7 4.7 0 0 0 1 3.8 4.4 4.4 0 0 0 3.6 1.6h22.8a5.9 5.9 0 0 0 4-1.6 6.6 6.6 0 0 0 2.2-3.8Z" style="fill:#0ff"/><path d="m358.6 68.8 19.7-28.3c.9-1.4 1.8-2 2.8-2s1.9.6 2.4 2l11.6 28.3 9.8-26a7.6 7.6 0 0 1 3-3.7 7.5 7.5 0 0 1 4.4-1.6h19.5q3.6 0 3.6 3.3a5.3 5.3 0 0 1-.4 2L419.6 81a8 8 0 0 1-3 3.7 7.6 7.6 0 0 1-4.4 1.5H394a7.8 7.8 0 0 1-4.4-1.4 7.6 7.6 0 0 1-2.9-3.3L380 64.3c-.5-1.3-1.2-2-2.2-2s-2 .7-2.8 2l-11.5 17.2a12 12 0 0 1-4 3.3 9.6 9.6 0 0 1-4.6 1.5h-18.1a6 6 0 0 1-4-1.6 5.4 5.4 0 0 1-2-3.6l-4.6-38.3a4.3 4.3 0 0 1 1-3.7 4.7 4.7 0 0 1 3.7-1.6h19.5a5.8 5.8 0 0 1 3.9 1.5 5.5 5.5 0 0 1 1.9 3.7Z" style="fill:#ed1e79"/><path d="M535.2 37.5a4.5 4.5 0 0 1 4.6 5.3l-5.3 38a6 6 0 0 1-2.1 3.8 5.9 5.9 0 0 1-4 1.6h-19.5a4.4 4.4 0 0 1-3.5-1.6 4.7 4.7 0 0 1-1.1-3.8l4.4-31.5a4.7 4.7 0 0 0-1-3.8A4.4 4.4 0 0 0 504 44h-22.8a5.9 5.9 0 0 0-4 1.6 6 6 0 0 0-2.1 3.8l-4.5 31.5a6 6 0 0 1-2.1 3.8 5.9 5.9 0 0 1-4 1.6h-19.5a4.4 4.4 0 0 1-3.5-1.6 4.7 4.7 0 0 1-1.1-3.8l5.4-38a5.9 5.9 0 0 1 2.1-3.8 6 6 0 0 1 4-1.6Z" style="fill:#0ff"/><path d="M628.4 20.3a6.1 6.1 0 0 0-4.1 1.5 5.9 5.9 0 0 0-2.1 3.8l-6.8 48.8a4.7 4.7 0 0 0 1 3.8 4.4 4.4 0 0 0 3.6 1.6h55.1a2.8 2.8 0 0 1 2.2 1 2.7 2.7 0 0 1 .6 2.3 3.3 3.3 0 0 1-3.7 3.2h-85.3a4.5 4.5 0 0 1-3.6-1.6 4.3 4.3 0 0 1-1-3.8l8.6-61.8a6 6 0 0 1 2.1-3.7 6 6 0 0 1 4.1-1.6h85.3a2.8 2.8 0 0 1 2.2.9 2.7 2.7 0 0 1 .6 2.3q-.5 3.3-3.7 3.3Z" style="fill:#ed1e79"/><path d="m722.1 44-5.2 36.9a6 6 0 0 1-2.1 3.8 5.9 5.9 0 0 1-4 1.6h-19.5a4.4 4.4 0 0 1-3.5-1.6 4.7 4.7 0 0 1-1-3.8l8.7-61.6a6.3 6.3 0 0 1 6-5.4H721a4.5 4.5 0 0 1 3.5 1.6 4.7 4.7 0 0 1 1.1 3.8L723 37.5h58.4a4.5 4.5 0 0 1 4.6 5.3l-5.3 38a6.7 6.7 0 0 1-2.1 3.8 5.8 5.8 0 0 1-4 1.6H755a4.5 4.5 0 0 1-3.6-1.6 4.3 4.3 0 0 1-1-3.8l4.4-31.5a4.7 4.7 0 0 0-1-3.8 4.4 4.4 0 0 0-3.6-1.5Z" style="fill:#0ff"/><path d="M881.7 86.3h-85.4a4.4 4.4 0 0 1-3.6-1.6 4.7 4.7 0 0 1-1-3.8l5.3-38a5.9 5.9 0 0 1 2.1-3.8 6 6 0 0 1 4-1.5h83.3a4.5 4.5 0 0 1 4.6 5.3l-3 21.9a6 6 0 0 1-2.2 3.8 5.9 5.9 0 0 1-4 1.6h-58.4l-.7 4.7a4 4 0 0 0 1.1 3.5 4.8 4.8 0 0 0 3.6 1.4h55.2a2.6 2.6 0 0 1 2.7 3.2 3.3 3.3 0 0 1-3.6 3.3Zm-22.9-40.8a4.4 4.4 0 0 0-3.5-1.6h-23a5.9 5.9 0 0 0-4 1.6 6 6 0 0 0-2 3.8l-2 14.3h28.2a6 6 0 0 0 4-1.5 5.9 5.9 0 0 0 2-3.8l1.4-9a4.7 4.7 0 0 0-1-3.8Z" style="fill:#ed1e79"/><path d="M986.2 86.3h-85.4a4.4 4.4 0 0 1-3.6-1.6 4.7 4.7 0 0 1-1-3.8l5.4-38a5.9 5.9 0 0 1 2.1-3.8 6 6 0 0 1 4-1.5h85.4a2.6 2.6 0 0 1 2.1 1 2.6 2.6 0 0 1 .6 2.2 3.3 3.3 0 0 1-3.7 3.2H937a5.9 5.9 0 0 0-4 1.6 6 6 0 0 0-2.1 3.8l-3.6 25.1a4.7 4.7 0 0 0 1 3.8 4.4 4.4 0 0 0 3.6 1.6h55.2a2.8 2.8 0 0 1 2.1.9 2.6 2.6 0 0 1 .7 2.3 3.4 3.4 0 0 1-3.7 3.2Z" style="fill:#0ff"/><path d="m1031.8 65.3-2.2 15.6a6 6 0 0 1-2.1 3.7 5.9 5.9 0 0 1-4 1.6H1004a4.4 4.4 0 0 1-3.5-1.6 4.7 4.7 0 0 1-1.1-3.8l8.6-61.6a6.4 6.4 0 0 1 2.2-3.8 6 6 0 0 1 4-1.6h19.4a4.6 4.6 0 0 1 3.6 1.6 4.3 4.3 0 0 1 1 3.8l-5.5 39.3 26.4-17.8a18 18 0 0 1 10.1-3.2h25.9c1.5 0 2.3.3 2.3 1s-.6 1.1-1.9 1.8l-32 18.7c-1.5.9-2.3 2-2.3 3.2a3 3 0 0 0 1.5 2.5l26.8 18.7c.9.6 1.3 1.2 1.3 1.6 0 .8-.9 1.2-2.6 1.2h-25.8a13.8 13.8 0 0 1-9.2-3.1Z" style="fill:#ed1e79"/><path d="M1191 86.3h-85.4a4.4 4.4 0 0 1-3.5-1.6 4.7 4.7 0 0 1-1-3.8l5.3-38a5.9 5.9 0 0 1 2-3.8 6 6 0 0 1 4-1.5h83.3a4.5 4.5 0 0 1 4.6 5.3l-3 21.9a6 6 0 0 1-2.2 3.8 5.9 5.9 0 0 1-4 1.6h-58.4l-.7 4.8a4 4 0 0 0 1.1 3.5 4.8 4.8 0 0 0 3.6 1.4h55.2a2.6 2.6 0 0 1 2.7 3.2 3.3 3.3 0 0 1-3.6 3.2Zm-22.9-40.8a4.4 4.4 0 0 0-3.5-1.6h-22.9a5.9 5.9 0 0 0-4 1.6 6 6 0 0 0-2.1 3.8l-2 14.3h28.2a6 6 0 0 0 4-1.5 5.9 5.9 0 0 0 2.1-3.8l1.3-9a4.7 4.7 0 0 0-1-3.8Z" style="fill:#0ff"/><path d="M1270.2 40.8a3.4 3.4 0 0 1-3.7 3.2h-20.8a6 6 0 0 0-4.1 1.6 6 6 0 0 0-2.1 3.8l-4.4 31.5a6 6 0 0 1-2.1 3.7 5.9 5.9 0 0 1-4 1.6h-19.5a4.4 4.4 0 0 1-3.6-1.6 4.7 4.7 0 0 1-1-3.8l5.3-38a6.3 6.3 0 0 1 2.2-3.7 6 6 0 0 1 4-1.6h51a2.8 2.8 0 0 1 2.2 1 2.6 2.6 0 0 1 .6 2.3ZM210.8 39.1a4.5 4.5 0 0 0-3.6-1.6h-83.3a6 6 0 0 0-4 1.6 5.9 5.9 0 0 0-2.1 3.8l-8.2 58.5a4.7 4.7 0 0 0 1 3.7 4.4 4.4 0 0 0 3.6 1.6h19.5a5.9 5.9 0 0 0 4-1.6 6.1 6.1 0 0 0 2.1-3.8l2.1-15h58.4a5.9 5.9 0 0 0 4-1.6 6 6 0 0 0 2.1-3.8l5.4-38a4.5 4.5 0 0 0-1-3.8Zm-35 39.1a18.4 18.4 0 1 1-26-26l10.4-10.5a3.7 3.7 0 0 1 5.2 0L176 52.2a18.4 18.4 0 0 1 0 26Z" style="fill:#ed1e79"/><path d="M165.4 41.7a3.7 3.7 0 0 0-5.2 0l-10.4 10.5a18.4 18.4 0 1 0 26 0Zm12.3 25.5a1.8 1.8 0 0 1 .5 2 7.1 7.1 0 0 1-3.4 4l-8.3 5c-4 2.5-6.7 2.4-10.3-.3-2.5-1.7-4.8-3.6-7.2-5.4-.4-.3-1.2-.6-.8-1.3a1.6 1.6 0 0 1 1.8-.9 17.3 17.3 0 0 1 3.7 1.3.6.6 0 0 0 .8-.2l-.4-.5-1.7-1a2 2 0 0 1-.9-1 1.5 1.5 0 0 1 .4-1.7 1.2 1.2 0 0 1 1.5 0l2.2 1.4a.8.8 0 0 0 .7 0c.4-.3 0-.6-.2-.7l-2-1.4c-.3-.2-.8-.6-.3-1 .2-.3.5 0 .8.2a34.3 34.3 0 0 0 5.3 3.4 2.7 2.7 0 0 0 3-.2c.2-.2.7-.3.5-.7s-.5 0-.8 0-.6.3-.9.4a.6.6 0 0 1-.8-.3.7.7 0 0 1 .2-.6l1.7-1.4c.2-.2.6-.5.4-.8s-.7-.1-1 .1l-1.4 1a2.6 2.6 0 0 1-3.1 0l-1-.7c-2.2-1.2-3.5-3-2.8-5.4a6.6 6.6 0 0 1 1.3-5.4 2.4 2.4 0 0 0 .3-3.1 1.8 1.8 0 0 1-.2-1c0-1 .5-1.5 1.5-1.2a6.5 6.5 0 0 1 1.1.4c.4.2.7.2.8-.2.2-.9.8-.8 1.3-.4 1.5 1.2 3.4 1.6 5 2.3a6.8 6.8 0 0 1 4.4 6.4 4.4 4.4 0 0 0 .2 1.6c.8 1.6 0 2.4-1.2 3.2-.4.2-1.2.6-1 .8.4.7 1-.2 1.4-.2s1.3-1.2 1.9-.4c.3.5-.9.8-1.3 1.2a8.2 8.2 0 0 1-1.3.8l-.2.3a1.2 1.2 0 0 0 .5 0 5.1 5.1 0 0 0 2.1-1c.8-.6 1.4-.5 2.1 0 2.1 1.8 2 1.6 0 3.4a49.2 49.2 0 0 1-8.6 5.4 2.8 2.8 0 0 1-2.6.2c-1.2-.5-2.6-.6-3.9-1.3a.4.4 0 0 0-.5.2.2.2 0 0 0 0 .1.5.5 0 0 0 .1.4 13.8 13.8 0 0 0 5.5 2.5 2.2 2.2 0 0 0 1.6-.5c2.1-1.4 4.3-2.6 6.3-4.2l5.3-3.5c.5-.3 1.2-.7 2-.1Z" style="fill:none"/><path d="M169.9 70.4c-1.8 1.4-3.8 2.5-5.8 3.8a2 2 0 0 1-1.4.5 12.5 12.5 0 0 1-5-2.3.5.5 0 0 1-.1-.4.3.3 0 0 1 .4-.2 37.6 37.6 0 0 0 3.6 1.1 2.6 2.6 0 0 0 2.3-.1 45.3 45.3 0 0 0 7.9-5c2-1.6 2-1.4 0-3-.7-.6-1.3-.7-2-.1a4.5 4.5 0 0 1-1.9 1 1 1 0 0 1-.4-.1c0-.1 0-.3.2-.3a7.2 7.2 0 0 0 1.1-.7c.4-.4 1.4-.7 1.2-1.1-.5-.8-1 .2-1.7.3s-1 .8-1.3.3c-.2-.3.6-.6 1-.8 1-.7 1.8-1.5 1-3a3.9 3.9 0 0 1-.1-1.4 6.2 6.2 0 0 0-4-5.9c-1.6-.6-3.3-1-4.6-2-.5-.4-1-.5-1.2.3-.1.4-.4.4-.7.2a5.5 5.5 0 0 0-1-.4c-1-.3-1.4.2-1.4 1.1a1.7 1.7 0 0 0 .2.9 2.2 2.2 0 0 1-.3 2.8 6 6 0 0 0-1.2 5c-.6 2.3.6 3.8 2.6 5l.8.6a2.4 2.4 0 0 0 3 0l1.2-1c.5-.4.7-.4 1 0s-.2.6-.4.7l-1.6 1.3a.7.7 0 0 0-.2.6.6.6 0 0 0 .8.2c.3 0 .5-.2.8-.3s.6-.4.7 0-.3.4-.5.6a2.5 2.5 0 0 1-2.7.2 31.3 31.3 0 0 1-4.8-3c-.3-.3-.6-.5-.8-.3-.4.3 0 .7.3.9l1.8 1.3c.2 0 .6.3.2.6a.7.7 0 0 1-.6 0l-2-1.4a1 1 0 0 0-1.4.2 1.4 1.4 0 0 0-.3 1.4 1.7 1.7 0 0 0 .8 1l1.5.9c.2 0 .4.4.4.5-.2.3-.5.2-.8.1a15.4 15.4 0 0 0-3.3-1.1 1.4 1.4 0 0 0-1.7.8c-.3.6.4.9.7 1.2l6.6 5c3.3 2.4 5.9 2.5 9.5.3l7.5-4.7A6.5 6.5 0 0 0 177 69a1.7 1.7 0 0 0-.3-1.9c-.7-.5-1.3-.2-1.9.2a63 63 0 0 0-4.8 3.2Z" style="fill:#ed1e79"/></svg>