<svg xmlns="http://www.w3.org/2000/svg" viewBox="0 0 964.1 100"><path d="M539.5 30.4a6.2 6.2 0 00-6 3.7l-2.8 5.7a3.6 3.6 0 00-.4 1.6q0 2.1 2.4 2.1h21a3.1 3.1 0 012.6 1.2 3.3 3.3 0 01.6 2.8l-.7 2.7a4.8 4.8 0 01-1.7 2.8 4.7 4.7 0 01-3 1.2h-24.3a6.2 6.2 0 00-5.9 3.7l-19.7 38.4a6.2 6.2 0 01-6 3.7h-13.3q-2.4 0-2.4-2.1a3 3 0 01.5-1.6l19.7-38.4a3.2 3.2 0 00.5-1.7q0-2-2.5-2h-38.4a3 3 0 01-2.5-1.2 3.3 3.3 0 01-.6-2.8l.6-2.7a4.8 4.8 0 011.7-2.8 4.7 4.7 0 013.1-1.2h41.6a6.2 6.2 0 005.9-3.7l2.8-5.7a3.6 3.6 0 00.5-1.6q0-2.1-2.5-2.1h-45.5a3.1 3.1 0 01-2.6-1.2 3 3 0 01-.5-2.8l.6-2.7a5.2 5.2 0 014.8-4h91.7a3 3 0 012.5 1.2 3.3 3.3 0 01.6 2.8l-.7 2.7a4.8 4.8 0 01-1.7 2.8 4.5 4.5 0 01-3 1.2z" fill="#ed1e79"/><path d="M644.5 93.2a3.3 3.3 0 01.6 2.7q-.9 4.1-4.8 4.1h-72a3 3 0 01-2.5-1.2 3.3 3.3 0 01-.6-2.8q.8-4 4.8-4h24.4a4.5 4.5 0 003-1.2 5.4 5.4 0 001.9-2.8l7.6-36.3a3.3 3.3 0 00-.5-2.7 3 3 0 00-2.6-1.2h-20a3 3 0 01-2.5-1.2 3.3 3.3 0 01-.6-2.8q.8-4 4.8-4h63.2a3 3 0 012.5 1.1 3.3 3.3 0 01.6 2.8q-.9 4-4.8 4h-20a4.5 4.5 0 00-3 1.3 5.4 5.4 0 00-1.9 2.7L614.4 88a3.3 3.3 0 00.6 2.8 3 3 0 002.5 1.2H642a3 3 0 012.5 1.2z" fill="#0ff"/><path d="M680.5 39.8a2.7 2.7 0 012 .9 3 3 0 01.9 2l-.5 23.3a3 3 0 01-3 3h-8.5a2.8 2.8 0 01-2-1 3 3 0 01-1-2l.5-23.3a3.2 3.2 0 011-2 2.8 2.8 0 012-1zm70 4q1.6 0 1.6 1.1a2.4 2.4 0 01-.7 1.4l-42.9 51.2a6.4 6.4 0 01-5 2.5h-11.7q-1.6 0-1.6-1a2.3 2.3 0 01.8-1.5l42.8-51.2A6.6 6.6 0 01739 44zM706.8 66a2.8 2.8 0 01-.9 2 3 3 0 01-2.1 1h-8.5a2.7 2.7 0 01-2-1 3 3 0 01-.9-2l.5-23.3a2.8 2.8 0 01.9-2 3 3 0 012.2-1h8.4a2.7 2.7 0 012 1 3 3 0 011 2z" fill="#ed1e79"/><path d="M871.8 25.3q2.8 0 2.8 2.6a3.8 3.8 0 01-.2 1.2l-21.6 67a5.1 5.1 0 01-5.3 3.9H835q-2.9 0-2.9-2.7a4 4 0 01.3-1.3l18.2-56.2a3.8 3.8 0 00.2-1.2q0-2.8-2.9-2.8h-23.8a6.2 6.2 0 00-5.8 3.8L789 96.3a6.2 6.2 0 01-5.9 3.7H770q-2.5 0-2.5-2.1a3.6 3.6 0 01.5-1.6L797 39.6a3.6 3.6 0 00.4-1.6q0-2.2-2.4-2.2h-24a3.1 3.1 0 01-2.5-1.2 3.3 3.3 0 01-.6-2.7l.6-2.8a4.6 4.6 0 011.7-2.7 4.8 4.8 0 013.1-1.1h27.1a6.2 6.2 0 006-3.9l1.5-3a6.2 6.2 0 015.9-3.8h13.3q2.5 0 2.5 2.1a3.6 3.6 0 01-.4 1.6l-1.6 3.1a3.8 3.8 0 00-.5 1.7q0 2.2 2.5 2.2z" fill="#0ff"/><path d="M961 54.5a3 3 0 012.4 1.2 3.3 3.3 0 01.6 2.8l-.6 2.7a4.8 4.8 0 01-1.7 2.8 4.7 4.7 0 01-3.1 1.2h-76.3a3.1 3.1 0 01-2.6-1.2 3.3 3.3 0 01-.6-2.8l.7-2.7a4.8 4.8 0 011.7-2.8 4.7 4.7 0 013-1.2z" fill="#ed1e79"/><path d="M72.3 53.9a5.8 5.8 0 00-2 4.3 3.6 3.6 0 00.5 1.9l19.6 36.7a2.8 2.8 0 01.4 1.3q0 1.9-2.6 1.9H73a6 6 0 01-5.6-3.2l-12-22.4a2.4 2.4 0 00-2.2-1.4 4 4 0 00-2.7 1.2L25.8 97a10.2 10.2 0 01-7.1 3H1.9Q0 100 0 99a2.9 2.9 0 011.2-2l68.6-63.6a3 3 0 001.1-2q0-1-1.8-1H11.3a3.1 3.1 0 01-2.6-1.2 3 3 0 01-.5-2.8l.6-2.7a4.7 4.7 0 011.7-2.8 4.8 4.8 0 013-1.2h91.7q1.9 0 1.9 1.2 0 .7-1.2 1.8z" fill="#0ff"/><path d="M124.8 53.8a5.3 5.3 0 015.4-3.9h12.6q2.6 0 2.6 2.6a4 4 0 01-.2 1.3l-14 38a5.5 5.5 0 01-5.5 4h-12.5q-2.8 0-2.8-2.6a5 5 0 01.2-1.4zm63.8-18a4.5 4.5 0 00-3 1.2 4.8 4.8 0 00-1.7 2.8l-12 56.2a4.8 4.8 0 01-1.8 2.8 4.5 4.5 0 01-3 1.2h-13.5a3 3 0 01-2.6-1.2 3.3 3.3 0 01-.5-2.8l12-56.2a3.3 3.3 0 00-.7-2.8 3 3 0 00-2.5-1.2h-34.6a3 3 0 01-2.5-1.2 3.3 3.3 0 01-.6-2.7l.7-2.8a4.6 4.6 0 011.7-2.7 4.8 4.8 0 013-1.1h34.6a4.7 4.7 0 003-1.2 4.8 4.8 0 001.8-2.8l.6-2.8a4.8 4.8 0 011.7-2.8 4.5 4.5 0 013-1.1h13.6a3 3 0 012.5 1.1 3.3 3.3 0 01.6 2.8l-.7 2.8a3.3 3.3 0 00.6 2.8 3 3 0 002.5 1.2h28.6a3 3 0 012.5 1 3.1 3.1 0 01.6 2.8l-.6 2.8a4.8 4.8 0 01-1.7 2.7 4.5 4.5 0 01-3 1.2zM211.7 50a3.7 3.7 0 012.8 1.1 3.5 3.5 0 011 2.8l-2 38a3.7 3.7 0 01-1.3 2.8 4 4 0 01-2.8 1.1h-12.6a3.6 3.6 0 01-2.7-1.1 3.5 3.5 0 01-1-2.8l2-38a4 4 0 011.3-2.8 4 4 0 012.9-1z" fill="#ed1e79"/><path d="M264.8 14L252.2 1.3a4.5 4.5 0 00-6.4 0L233.1 14a22.4 22.4 0 1031.7 0zm-10.2 11a.5.5 0 00-.7.2c-1 1.8-2.5 1.5-4 1-1.6-.4-2-2-2.4-3.3-.3-1 .6-1.6 1.3-2a6.2 6.2 0 011.7-.2c.3 0 .6 0 .5-.4l-.5-.1h-1.1a2.7 2.7 0 00-2.6.8c-.8 1-1.6.9-2.4 0-1-1.3-2.4-.8-3.7-.8-.2 0-.3.2-.4.3l.5.2a2 2 0 00.3 0c2.4.4 3.2 1.4 2.8 3.3a3.8 3.8 0 01-4.5 3 1.4 1.4 0 01-.7-.4c-1-1.4-2.3-2.7-3.2-4.1-.8-1.2-1.2-2.7.4-3.8a1.8 1.8 0 00.5-1c.3-1 .9-1.1 1.7-.8a3.7 3.7 0 001.1.4c.6 0 1.1 0 1.3-.8a12 12 0 01.7-2.2c.8-1.8 2-2 3.5-.6l4.6 4.5a.5.5 0 00.7 0c0-.1 0-.4-.2-.5-1.7-1.9-3.3-3.8-5-5.5-2-2-3.6-1.6-4.2 1.2l-.8 2.7a.5.5 0 01-.6.4 1.3 1.3 0 01-.7-.5 1 1 0 010-.8c1-2 1.5-4 2.8-5.8a1.3 1.3 0 012-.5c1.5 1 3.2 1.6 4.3 3.4a16.6 16.6 0 002.7 3c.4.4 1 1.3 1.4 1 .8-.6-.1-1.3-.5-1.9-.4-.6-.1-1.1.6-1.1a1.8 1.8 0 011.6.5l3.3 3.9c.6.6.4 1.2-.2 1.7a3.3 3.3 0 01-.9.7c-1.6.6-1.3 1.9-1.1 3.1a.9.9 0 00.5.6c.6.2.4-.4.5-.7 0-.5 0-1 .2-1.4 0-.3.4-.3.7-.2.2.1.6.5.5.6 0 .4-.4.6-.5 1-.2.3-.5.8-.3 1 1 2-.3 3.2-1.3 4.6a5.3 5.3 0 00-1 2.9 4.4 4.4 0 01-3 3.8c-3.9 1.7-4.3 1.7-8.2.2a6 6 0 01-3.2-6.6.8.8 0 01.8-.7c2.6 0 3.6-1.7 4.7-3.6a9 9 0 01.5-1c.3-.5.8-.6 1.1 0l.8 1.5a5 5 0 005.9 2.3 2.4 2.4 0 001.7-1.8 1 1 0 00-.3-.7zm-2.2 12a5.2 5.2 0 01-2.4 3.7 2.4 2.4 0 01-3-1.2.7.7 0 01.2-1 11.3 11.3 0 014.6-2c.2 0 .4.4.6.5zm10.6 5.8l-2.7 1.7c-3 1.8-6.5 2.6-9.7 4.2a6.7 6.7 0 01-1.8.3 28.3 28.3 0 00-6-.8 3.2 3.2 0 01-1.4-.5c-2.2-1.3-2.2-1.4-.8-3.6a19 19 0 013.7-4.4c1-.8 1.2-.8 2 .3 1.9 2.4 4.2 3 6.3-.5a11.1 11.1 0 001.3-2.8 1.1 1.1 0 011.3-1c2.9 1 6 1.5 8 4 1.2 1.3 1.2 2-.2 3.1zM342 54.5a3 3 0 012.4 1.2 3.3 3.3 0 01.6 2.8l-.6 2.7a4.8 4.8 0 01-1.7 2.8 4.7 4.7 0 01-3.1 1.2h-76.3a3.1 3.1 0 01-2.6-1.2 3.3 3.3 0 01-.6-2.8l.7-2.7a4.8 4.8 0 011.7-2.8 4.7 4.7 0 013-1.2z" fill="#0ff"/><path d="M388.4 14L375.7 1.3a4.5 4.5 0 00-6.3 0L356.7 14a22.4 22.4 0 1031.7 0zm-1.3 25.6l-10 6.2c-4.8 2.9-8.2 2.8-12.7-.4l-8.7-6.6c-.5-.4-1.4-.7-1-1.6a1.9 1.9 0 012.3-1 20.7 20.7 0 014.4 1.4c.3.2.8.3 1-.2 0-.1-.2-.5-.5-.6-.6-.4-1.4-.7-2-1.2a2.3 2.3 0 01-1.1-1.3 1.8 1.8 0 01.4-2 1.4 1.4 0 011.9-.1l2.7 1.8a1 1 0 00.8 0c.5-.4 0-.6-.3-.8-.8-.6-1.7-1-2.4-1.7-.3-.3-.9-.7-.4-1.2.4-.3.7 0 1 .3a42 42 0 006.5 4.1 3.3 3.3 0 003.6-.3c.3-.2.8-.4.7-.8-.2-.5-.7 0-1 0l-1 .5a.7.7 0 01-1-.4.9.9 0 01.2-.7l2-1.7c.3-.2.8-.6.6-1-.4-.4-1-.1-1.3.2-.6.3-1.1.8-1.7 1.2a3.1 3.1 0 01-3.8 0L365 31c-2.7-1.5-4.2-3.6-3.3-6.7a8 8 0 011.5-6.5c1-1.1 1.4-2.4.4-3.8a2.3 2.3 0 01-.2-1.2c-.1-1.3.5-1.8 1.8-1.5a8.1 8.1 0 011.4.6c.4.2.7.2.9-.3.2-1 1-1 1.5-.5 1.9 1.4 4.1 2 6.2 2.8a8.3 8.3 0 015.3 7.7 5.3 5.3 0 00.2 2c1 2 0 3-1.4 4-.5.2-1.5.6-1.3 1 .5.7 1.2-.3 1.8-.4.8-.1 1.6-1.4 2.2-.4.3.5-1 1-1.6 1.5a10 10 0 01-1.5.9l-.2.4a1.5 1.5 0 00.5 0 6 6 0 002.6-1.3c1-.7 1.6-.6 2.6.2 2.6 2 2.5 1.8 0 4A59.5 59.5 0 01374 40a3.4 3.4 0 01-3.1.2c-1.6-.6-3.3-.8-4.8-1.6a.5.5 0 00-.6.4.6.6 0 00.1.5 16.6 16.6 0 006.7 3 2.7 2.7 0 002-.6c2.5-1.7 5.2-3.2 7.6-5 2-1.6 4.2-3 6.4-4.4.7-.4 1.5-1 2.4-.2a2.2 2.2 0 01.5 2.4 8.7 8.7 0 01-4.1 4.9z" fill="#ed1e79"/><path d="M450.6 25.1q2 0 2 1.4a3 3 0 01-1 2l-57.2 68.2a8.5 8.5 0 01-6.7 3.3h-15.5q-2 0-2-1.4a3.2 3.2 0 01.9-2l57.2-68.1A8.5 8.5 0 01435 25z" fill="#0ff"/></svg>