<svg xmlns="http://www.w3.org/2000/svg" viewBox="0 0 320 320"><path d="M64 0h192a64 64 0 0 1 64 64v96H0V64A64 64 0 0 1 64 0Z" style="fill:#2ecc71"/><path d="M0 160h160v160H64a64 64 0 0 1-64-64v-96Z" style="fill:#f1c40f"/><path d="M160 160h160v160h-96.2a63.8 63.8 0 0 1-63.8-63.8V160Z" transform="rotate(-90 240 240)" style="fill:#e74c3c"/><path d="M273.6 106.9c2.5 23-9.3 41.4-19.4 60.2-.3.6-1 1-1.1 1.5-13.5 32.1-42.4 46.3-70.3 62.1a163.3 163.3 0 0 1-61 21.3c-15 1.9-14.8 2.9-15.3 19-.4 11-1 22-1.6 33-.2 3.6 0 8.6-4.7 8.5-3 0-3-4.8-3-7.6.4-10-2.6-19.4-3.3-29-1.5-19.2-11.6-33-24.8-45.5-5.2-4.9-7-2.3-8.7 2.3-1 2.8-1.4 5.9-2.3 8.8-.3.9-1.7 2-2.4 2-1-.1-2-1.2-2.8-2a4 4 0 0 1-.8-1.6 28 28 0 0 1 1.6-21.9c-8.1-3.9-8.2-11.1-8.2-18.7a26.5 26.5 0 0 1 5.9-18.8c3.5-4 6.5-11.7 11.6-10 6.3 2 2.6 9.2 1.6 14a10.2 10.2 0 0 0 2.4 10.3c6.2 6 10.3 11.5 2.4 19.8-2.6 2.7 3 5.6 5 8.2a10.6 10.6 0 0 0 3 2c.4-1.5 1.5-3.6 1-4.4-4-6.1-3.4-12.9-3-19.5 0-2.8-.7-6.7 3.3-7.4 3.5-.6 5.4 2.3 7 4.8 6 9.6 15.7 18.7 4.3 30.8-1.4 1.5-2 3.5.4 4.1a34.2 34.2 0 0 0 8.9.7c1.8 0 2.7-.6 1.8-3.1-5.8-16.1 2.2-29.4 9.3-42.6 2.2-4.1 6.1-3.8 8 1a18.7 18.7 0 0 1 1.1 7.2 33.9 33.9 0 0 0 11.3 26c5.9 5.8 4.7 8.2-3.8 10a64.4 64.4 0 0 1-7 1 28.3 28.3 0 0 0 7.2.4 100 100 0 0 0 51.6-23.2 133.8 133.8 0 0 0 29.8-38.9 82 82 0 0 0 4.3-12c2-7 1.6-11.4-7.7-12.2a107.2 107.2 0 0 1-26.1-6.5c-19.3-7-30-23.9-42.5-38.7-5-6-10.2-12-15.4-18C102 62 62.2 63.7 42 75.2a35.1 35.1 0 0 0-6.4 6.3c3.1 3 4.8-2 7.6-1.5a8 8 0 0 1 6.7 11.8 108 108 0 0 1-6.5 10.9c-3.6 6.1-8.9 12-3.7 20a4 4 0 0 1-1.2 5.4 4.2 4.2 0 0 1-1 .5 6.8 6.8 0 0 1-5.1-.9 25.4 25.4 0 0 1-10.3-29.1c4.5-18 9.8-35.7 29.5-43 5.3-2 5.7-5.5 3.1-10.2a11.5 11.5 0 0 1-.6-10.6c1.8-3.6 2.2-8.9 7.3-9.5 4.8-.6 5 4.5 6.9 7.3 7.4 11.6 7.5 12.1 19.9 7.7 39-13.8 78.6-10.4 118-3a36.6 36.6 0 0 0 24-3.4 20 20 0 0 0 13-18 10.1 10.1 0 0 1 2.5-4.9 27.6 27.6 0 0 1 3.8-3.5c1 1.5 2.1 2.9 3 4.4a13.8 13.8 0 0 1 2.6 4.8 289.6 289.6 0 0 0 16.4 63c3.4 9 .6 18.2 2.1 27.2Zm-121-18a39.9 39.9 0 0 0 6.4 22.9c13.3 17.3 29 26.6 51.5 21.6 17.3-3.9 25.2-11.9 24.8-30-.4-20.7-8-37.7-26.3-48.9-13-8-26-9.6-39.4-2.4-13.3 7.1-17.8 19.2-17 36.8Z" style="fill:#36393f"/><path d="M217.9 265.5c-3.3-.6-7.8-.2-9-2-7.5-11.4-17.8-6.4-27.6-5.7-9 .6-18.2 7-27-.6 4.8-8.2 14-10.7 21-15.9 8.6-6.4 17.7-12.2 26.6-18.4 6.2-4.3 10.3-4.4 14 3.8 4.8 11.3 16 14 26.7 15.6a121 121 0 0 0 21.7-.9c3.8-.1 7.4-.6 7.3-5.7 0-3.5 1.5-8.1-2.7-9.7a7.3 7.3 0 0 0-9.9 3 6.5 6.5 0 0 0-.5 1c-2.3 4.4-4.5 14.3-12.2 7.6-4.7-4.2-.7-12 3.2-16.2 3.8-4 7-8.3 10.6-12.3 6.8-7.5 10-7.2 18.7 0 3.3 2.8 7.2 4.6 10.4 7.4 5.4 4.8 11.7 9.4 9.4 18.3-1.7 6.4-10.9 12-19.7 12.5-7 .5-14.8-2.2-21.1 2.7-8.4 6.4-18.9 7.6-28 12a72.9 72.9 0 0 1-12 3.5ZM105.5 79.7c5.8 0 21.3 13 23 19a7 7 0 0 1-1.6 6.8 81.5 81.5 0 0 1-7.6 7.8c-4 3.4-4.8 12-11.2 10.5-7.2-1.7-8.6-10-10-16.2a79.9 79.9 0 0 1-.7-20 7.3 7.3 0 0 1 6.7-7.8 7 7 0 0 1 1.4 0ZM137.2 132.6l-.3-5.6c-.4-5.2-7-11.9-1.6-14.9 5.9-3.2 9 5.7 13.4 9a17.3 17.3 0 0 1 3.8 3.9c4 5.5 11.2 10.2 5.1 18.6-6 8.1-17.5 13.1-25 10.7-4.4-1.3-3.3-4.4-1.6-7a27.7 27.7 0 0 0 6.2-14.7ZM56.9 86.4c0-4.9-.6-10.2 5-12.6a20.3 20.3 0 0 1 17.5.5 5.2 5.2 0 0 1 3.1 6 36.6 36.6 0 0 1-16 21.3c-2.3 1.5-4.5.5-6.3-1.4-3.9-4-3.1-9-3.3-13.8ZM173.5 157.5c0-10 6.2-14.6 15-10.7a6.2 6.2 0 0 1 4 7.7 5.6 5.6 0 0 1-.4 1.1 20.6 20.6 0 0 1-5.5 7.1c-3 2.5-2.7 9.6-8.2 7.6-5.1-2-4.6-8-4.9-12.8ZM152.9 188a29 29 0 0 1 5.4 2.8 70.5 70.5 0 0 0 14.3 10.8c6.6 3.5 6.7 7.3-.8 11-5.4 2.5-8.2 11.7-16.4 7-4.2-2.5-8-22.5-5.6-27.4a29.4 29.4 0 0 1 3-4.3Z" style="fill:#36393f"/><circle cx="197.4" cy="89.1" r="12.3" style="fill:#36393f"/></svg>